<svg width="130" height="180" viewBox="0 0 130 180" fill="none" xmlns="http://www.w3.org/2000/svg">
<rect x="10" width="10" height="10" fill="black"/>
<rect x="20" width="10" height="10" fill="black"/>
<rect x="30" width="10" height="10" fill="black"/>
<rect x="40" width="10" height="10" fill="black"/>
<rect x="50" width="10" height="10" fill="black"/>
<rect x="60" width="10" height="10" fill="black"/>
<rect x="10" y="10" width="10" height="10" fill="black"/>
<rect y="10" width="10" height="10" fill="black"/>
<rect y="20" width="10" height="10" fill="black"/>
<rect y="30" width="10" height="10" fill="black"/>
<rect x="10" y="30" width="10" height="10" fill="black"/>
<rect x="20" y="30" width="10" height="10" fill="black"/>
<rect x="100" y="120" width="10" height="10" transform="rotate(-90 100 120)" fill="black"/>
<rect x="120" y="120" width="10" height="10" transform="rotate(-90 120 120)" fill="black"/>
<rect x="60" y="170" width="10" height="10" transform="rotate(-90 60 170)" fill="black"/>
<rect x="70" y="170" width="10" height="10" transform="rotate(-90 70 170)" fill="black"/>
<rect x="70" y="160" width="10" height="10" transform="rotate(-90 70 160)" fill="black"/>
<rect x="80" y="160" width="10" height="10" transform="rotate(-90 80 160)" fill="black"/>
<rect x="80" y="170" width="10" height="10" transform="rotate(-90 80 170)" fill="black"/>
<rect x="80" y="180" width="10" height="10" transform="rotate(-90 80 180)" fill="black"/>
<rect x="90" y="180" width="10" height="10" transform="rotate(-90 90 180)" fill="black"/>
<rect x="100" y="180" width="10" height="10" transform="rotate(-90 100 180)" fill="black"/>
<rect x="60" y="180" width="10" height="10" transform="rotate(-90 60 180)" fill="black"/>
<rect x="70" y="130" width="10" height="10" fill="black"/>
<rect x="20" y="170" width="10" height="10" fill="black"/>
<rect x="90" y="130" width="10" height="10" transform="rotate(-90 90 130)" fill="#EBA723"/>
<rect x="50" y="170" width="10" height="10" transform="rotate(-90 50 170)" fill="#EBA723"/>
<rect x="80" y="120" width="10" height="10" transform="rotate(-90 80 120)" fill="black"/>
<rect x="60" y="120" width="10" height="10" transform="rotate(-90 60 120)" fill="black"/>
<rect x="70" y="130" width="10" height="10" transform="rotate(-90 70 130)" fill="#EBA723"/>
<rect x="10" y="170" width="10" height="10" fill="black"/>
<rect x="30" y="170" width="10" height="10" transform="rotate(-90 30 170)" fill="#EBA723"/>
<rect x="50" y="130" width="10" height="10" transform="rotate(-90 50 130)" fill="#EBA723"/>
<rect x="120" y="110" width="10" height="10" transform="rotate(-90 120 110)" fill="black"/>
<rect x="110" y="170" width="10" height="10" transform="rotate(-90 110 170)" fill="black"/>
<rect x="100" y="170" width="10" height="10" transform="rotate(-90 100 170)" fill="black"/>
<rect x="90" y="170" width="10" height="10" transform="rotate(-90 90 170)" fill="#B3AAA1"/>
<rect x="90" y="160" width="10" height="10" transform="rotate(-90 90 160)" fill="#7C776F"/>
<rect x="100" y="160" width="10" height="10" transform="rotate(-90 100 160)" fill="#7C776F"/>
<rect x="70" y="150" width="10" height="10" transform="rotate(-90 70 150)" fill="#7C776F"/>
<rect x="90" y="150" width="10" height="10" transform="rotate(-90 90 150)" fill="#7C776F"/>
<rect x="80" y="150" width="10" height="10" transform="rotate(-90 80 150)" fill="#7C776F"/>
<rect x="100" y="150" width="10" height="10" transform="rotate(-90 100 150)" fill="#7C776F"/>
<rect x="80" y="130" width="10" height="10" fill="black"/>
<rect x="60" y="160" width="10" height="10" transform="rotate(-90 60 160)" fill="black"/>
<rect x="30" y="170" width="10" height="10" fill="black"/>
<rect x="10" y="150" width="10" height="10" fill="black"/>
<rect x="50" y="120" width="10" height="10" transform="rotate(-180 50 120)" fill="black"/>
<rect x="130" y="90" width="10" height="10" transform="rotate(-180 130 90)" fill="black"/>
<rect x="120" y="150" width="10" height="10" transform="rotate(-180 120 150)" fill="black"/>
<rect x="10" y="130" width="10" height="10" fill="black"/>
<rect x="100" y="140" width="10" height="10" transform="rotate(-90 100 140)" fill="black"/>
<rect x="70" y="90" width="10" height="10" transform="rotate(-180 70 90)" fill="black"/>
<rect x="70" y="140" width="10" height="10" transform="rotate(-180 70 140)" fill="black"/>
<rect x="50" y="180" width="10" height="10" transform="rotate(-90 50 180)" fill="black"/>
<rect x="40" y="140" width="10" height="10" transform="rotate(-180 40 140)" fill="#087030"/>
<rect x="90" y="90" width="10" height="10" transform="rotate(-180 90 90)" fill="black"/>
<rect x="10" y="120" width="10" height="10" transform="rotate(-90 10 120)" fill="black"/>
<rect x="30" y="120" width="10" height="10" transform="rotate(-90 30 120)" fill="black"/>
<rect x="70" y="80" width="10" height="10" transform="rotate(-180 70 80)" fill="black"/>
<rect x="130" y="80" width="10" height="10" transform="rotate(-180 130 80)" fill="black"/>
<rect x="90" y="120" width="10" height="10" transform="rotate(-90 90 120)" fill="black"/>
<rect x="70" y="120" width="10" height="10" transform="rotate(-90 70 120)" fill="black"/>
<rect x="110" y="90" width="10" height="10" transform="rotate(-180 110 90)" fill="black"/>
<rect x="120" y="140" width="10" height="10" transform="rotate(-180 120 140)" fill="black"/>
<rect x="110" y="120" width="10" height="10" transform="rotate(-90 110 120)" fill="black"/>
<rect x="80" y="130" width="10" height="10" transform="rotate(-90 80 130)" fill="#EBA723"/>
<rect x="60" y="130" width="10" height="10" transform="rotate(-90 60 130)" fill="#EBA723"/>
<rect x="40" y="130" width="10" height="10" transform="rotate(-180 40 130)" fill="#087030"/>
<rect x="110" y="50" width="10" height="10" transform="rotate(90 110 50)" fill="black"/>
<rect x="100" y="130" width="10" height="10" transform="rotate(-90 100 130)" fill="#EBA723"/>
<rect x="40" y="170" width="10" height="10" transform="rotate(-90 40 170)" fill="#EBA723"/>
<rect x="20" y="170" width="10" height="10" transform="rotate(-90 20 170)" fill="#EBA723"/>
<rect x="50" y="120" width="10" height="10" transform="rotate(-90 50 120)" fill="black"/>
<rect x="90" y="80" width="10" height="10" transform="rotate(-180 90 80)" fill="black"/>
<rect x="50" y="150" width="10" height="10" transform="rotate(-90 50 150)" fill="#EBA723"/>
<rect x="50" y="140" width="10" height="10" transform="rotate(-90 50 140)" fill="#EBA723"/>
<rect x="50" y="160" width="10" height="10" transform="rotate(-90 50 160)" fill="#EBA723"/>
<rect x="110" y="80" width="10" height="10" transform="rotate(-180 110 80)" fill="black"/>
<rect x="20" y="40" width="10" height="10" fill="black"/>
<rect x="50" y="90" width="10" height="10" transform="rotate(-180 50 90)" fill="black"/>
<rect x="100" y="50" width="10" height="10" transform="rotate(90 100 50)" fill="black"/>
<rect x="10" y="160" width="10" height="10" fill="black"/>
<rect x="50" y="80" width="10" height="10" transform="rotate(-180 50 80)" fill="black"/>
<rect x="20" y="70" width="10" height="10" fill="black"/>
<rect x="10" y="140" width="10" height="10" fill="black"/>
<rect x="70" y="100" width="10" height="10" transform="rotate(-180 70 100)" fill="black"/>
<rect x="130" y="100" width="10" height="10" transform="rotate(-180 130 100)" fill="black"/>
<rect x="10" y="120" width="10" height="10" fill="black"/>
<rect x="120" y="160" width="10" height="10" transform="rotate(-180 120 160)" fill="black"/>
<rect x="70" y="50" width="10" height="10" transform="rotate(90 70 50)" fill="black"/>
<rect x="90" y="140" width="10" height="10" transform="rotate(-90 90 140)" fill="black"/>
<rect x="20" y="80" width="10" height="10" fill="black"/>
<rect x="20" y="100" width="10" height="10" fill="black"/>
<rect x="70" y="150" width="10" height="10" transform="rotate(-180 70 150)" fill="black"/>
<rect x="40" y="180" width="10" height="10" transform="rotate(-90 40 180)" fill="black"/>
<rect x="40" y="150" width="10" height="10" transform="rotate(-180 40 150)" fill="#087030"/>
<rect x="130" y="60" width="10" height="10" transform="rotate(90 130 60)" fill="black"/>
<rect x="50" y="110" width="10" height="10" transform="rotate(-180 50 110)" fill="black"/>
<rect x="60" y="50" width="10" height="10" transform="rotate(90 60 50)" fill="black"/>
<rect x="90" y="100" width="10" height="10" transform="rotate(-180 90 100)" fill="black"/>
<rect x="110" y="100" width="10" height="10" transform="rotate(-180 110 100)" fill="black"/>
<rect x="130" y="50" width="10" height="10" transform="rotate(90 130 50)" fill="black"/>
<rect x="120" y="120" width="10" height="10" transform="rotate(90 120 120)" fill="black"/>
<rect x="30" y="40" width="10" height="10" fill="#EADFD2"/>
<rect x="40" y="40" width="10" height="10" fill="#EADFD2"/>
<rect x="50" y="60" width="10" height="10" fill="#EADFD2"/>
<rect x="60" y="60" width="10" height="10" fill="#EADFD2"/>
<rect x="20" y="50" width="10" height="10" fill="black"/>
<rect x="50" y="70" width="10" height="10" fill="#EADFD2"/>
<rect x="50" y="80" width="10" height="10" fill="#B3AAA1"/>
<rect x="70" y="80" width="10" height="10" fill="#B3AAA1"/>
<rect x="70" y="70" width="10" height="10" fill="#B3AAA1"/>
<rect x="90" y="50" width="10" height="10" transform="rotate(90 90 50)" fill="black"/>
<rect x="50" y="40" width="10" height="10" fill="#EADFD2"/>
<rect x="30" y="50" width="10" height="10" fill="#EADFD2"/>
<rect x="20" y="20" width="10" height="10" fill="black"/>
<rect x="120" y="50" width="10" height="10" transform="rotate(90 120 50)" fill="black"/>
<rect x="70" y="60" width="10" height="10" fill="#EADFD2"/>
<rect x="80.0001" y="100" width="10" height="10" transform="rotate(90 80.0001 100)" fill="#B3AAA1"/>
<rect x="20" y="120" width="10" height="10" fill="#087030"/>
<rect x="20" y="130" width="10" height="10" fill="#087030"/>
<rect x="40" y="130" width="10" height="10" fill="#087030"/>
<rect x="70.0001" y="100" width="10" height="10" transform="rotate(90 70.0001 100)" fill="#B3AAA1"/>
<rect x="40" y="120" width="10" height="10" fill="#087030"/>
<rect x="80" y="60" width="10" height="10" fill="#B3AAA1"/>
<rect x="70" y="90" width="10" height="10" fill="#B3AAA1"/>
<rect x="50" y="90" width="10" height="10" fill="#B3AAA1"/>
<rect x="90" y="60" width="10" height="10" fill="#B3AAA1"/>
<rect x="60" y="100" width="10" height="10" transform="rotate(90 60 100)" fill="#B3AAA1"/>
<rect x="90" y="100" width="10" height="10" transform="rotate(90 90 100)" fill="#B3AAA1"/>
<rect x="100" y="60" width="10" height="10" fill="#B3AAA1"/>
<rect x="110" y="60" width="10" height="10" fill="#B3AAA1"/>
<rect x="90" y="70" width="10" height="10" fill="#B3AAA1"/>
<rect x="50.0001" y="150" width="10" height="10" transform="rotate(90 50.0001 150)" fill="#087030"/>
<rect x="120" y="100" width="10" height="10" transform="rotate(90 120 100)" fill="#B3AAA1"/>
<rect x="110" y="70" width="10" height="10" fill="#B3AAA1"/>
<rect x="90" y="80" width="10" height="10" fill="#B3AAA1"/>
<rect x="40.0001" y="150" width="10" height="10" transform="rotate(90 40.0001 150)" fill="#087030"/>
<rect x="110" y="100" width="10" height="10" transform="rotate(90 110 100)" fill="#B3AAA1"/>
<rect x="110" y="80" width="10" height="10" fill="#B3AAA1"/>
<rect x="40" y="140" width="10" height="10" fill="#087030"/>
<rect x="20" y="140" width="10" height="10" fill="#087030"/>
<rect x="90" y="90" width="10" height="10" fill="#B3AAA1"/>
<rect x="30" y="150" width="10" height="10" transform="rotate(90 30 150)" fill="#087030"/>
<rect x="100" y="100" width="10" height="10" transform="rotate(90 100 100)" fill="#B3AAA1"/>
<rect x="110" y="90" width="10" height="10" fill="#B3AAA1"/>
<rect x="30" y="60" width="10" height="10" fill="#7C776F"/>
<rect x="30" y="70" width="10" height="10" fill="#7C776F"/>
<rect x="30" y="80" width="10" height="10" fill="#7C776F"/>
<rect x="30" y="90" width="10" height="10" fill="#7C776F"/>
<rect x="30" y="100" width="10" height="10" fill="#7C776F"/>
<rect x="50" y="70" width="10" height="10" transform="rotate(-180 50 70)" fill="black"/>
<rect x="90" y="40" width="10" height="10" transform="rotate(90 90 40)" fill="#7C776F"/>
<rect x="50" y="100" width="10" height="10" transform="rotate(-180 50 100)" fill="black"/>
<rect x="80" y="40" width="10" height="10" transform="rotate(90 80 40)" fill="#7C776F"/>
<rect x="70" y="40" width="10" height="10" transform="rotate(90 70 40)" fill="#7C776F"/>
<rect x="110" y="40" width="10" height="10" transform="rotate(90 110 40)" fill="#7C776F"/>
<rect x="100" y="40" width="10" height="10" transform="rotate(90 100 40)" fill="#7C776F"/>
<rect x="20" y="90" width="10" height="10" fill="black"/>
<rect x="20" y="110" width="10" height="10" fill="black"/>
<rect x="50" y="50" width="10" height="10" transform="rotate(90 50 50)" fill="black"/>
<rect x="20" y="60" width="10" height="10" fill="black"/>
<rect x="80" y="50" width="10" height="10" transform="rotate(90 80 50)" fill="black"/>
<rect x="10" y="20" width="10" height="10" fill="#CF202B"/>
<rect x="20" y="10" width="10" height="10" fill="#CF202B"/>
<rect x="30" y="10" width="10" height="10" fill="#CF202B"/>
<rect x="40" y="20" width="10" height="10" fill="#CF202B"/>
<rect x="50" y="20" width="10" height="10" fill="#CF202B"/>
<rect x="50" y="30" width="10" height="10" fill="#CF202B"/>
<rect x="60" y="30" width="10" height="10" fill="#CF202B"/>
<rect x="60" y="20" width="10" height="10" fill="#CF202B"/>
<rect x="70" y="20" width="10" height="10" fill="#CF202B"/>
<rect x="50" y="10" width="10" height="10" fill="#CF202B"/>
<rect x="60" y="10" width="10" height="10" fill="#CF202B"/>
<rect x="40" y="10" width="10" height="10" fill="#CF202B"/>
<rect x="30" y="20" width="10" height="10" fill="black"/>
<rect x="30" y="30" width="10" height="10" fill="black"/>
<rect x="40" y="30" width="10" height="10" fill="black"/>
<rect x="70" y="30" width="10" height="10" fill="black"/>
<rect x="80" y="30" width="10" height="10" fill="black"/>
<rect x="90" y="30" width="10" height="10" fill="black"/>
<rect x="100" y="30" width="10" height="10" fill="black"/>
<rect x="110" y="30" width="10" height="10" fill="black"/>
<rect x="110" y="40" width="10" height="10" fill="black"/>
<rect x="80" y="20" width="10" height="10" fill="black"/>
<rect x="80" y="10" width="10" height="10" fill="black"/>
<rect x="70" y="10" width="10" height="10" fill="black"/>
<rect x="70" width="10" height="10" fill="black"/>
</svg>
